<svg id="visual" viewBox="0 0 2000 100" width="2000" height="100" xmlns="http://www.w3.org/2000/svg" xmlns:xlink="http://www.w3.org/1999/xlink" version="1.1">
  <path d="M0 23L87 28L174 34L261 19L348 21L435 45L522 27L609 35L696 27L783 40L870 40L957 31L1043 33L1130 33L1217 29L1304 25L1391 26L1478 42L1565 29L1652 18L1739 39L1826 20L1913 37L2000 24L2000 0L1913 0L1826 0L1739 0L1652 0L1565 0L1478 0L1391 0L1304 0L1217 0L1130 0L1043 0L957 0L870 0L783 0L696 0L609 0L522 0L435 0L348 0L261 0L174 0L87 0L0 0Z" fill="#001220">
  </path>
  <path d="M0 39L87 45L174 49L261 35L348 36L435 56L522 38L609 46L696 40L783 48L870 46L957 43L1043 48L1130 49L1217 41L1304 42L1391 45L1478 49L1565 45L1652 25L1739 48L1826 39L1913 51L2000 45L2000 22L1913 35L1826 18L1739 37L1652 16L1565 27L1478 40L1391 24L1304 23L1217 27L1130 31L1043 31L957 29L870 38L783 38L696 25L609 33L522 25L435 43L348 19L261 17L174 32L87 26L0 21Z" fill="#9f7a00">
  </path>
  <path d="M0 54L87 56L174 62L261 51L348 47L435 63L522 55L609 63L696 47L783 60L870 63L957 49L1043 55L1130 59L1217 50L1304 48L1391 55L1478 59L1565 59L1652 36L1739 60L1826 47L1913 58L2000 53L2000 43L1913 49L1826 37L1739 46L1652 23L1565 43L1478 47L1391 43L1304 40L1217 39L1130 47L1043 46L957 41L870 44L783 46L696 38L609 44L522 36L435 54L348 34L261 33L174 47L87 43L0 37Z" fill="#ffcd00">
  </path>
  <path d="M0 70L87 77L174 88L261 69L348 67L435 74L522 74L609 72L696 64L783 75L870 89L957 67L1043 68L1130 71L1217 63L1304 75L1391 69L1478 79L1565 72L1652 54L1739 85L1826 56L1913 69L2000 71L2000 51L1913 56L1826 45L1739 58L1652 34L1565 57L1478 57L1391 53L1304 46L1217 48L1130 57L1043 53L957 47L870 61L783 58L696 45L609 61L522 53L435 61L348 45L261 49L174 60L87 54L0 52Z" fill="#9f7a00"></path>
  <path d="M0 101L87 101L174 101L261 101L348 101L435 101L522 101L609 101L696 101L783 101L870 101L957 101L1043 101L1130 101L1217 101L1304 101L1391 101L1478 101L1565 101L1652 101L1739 101L1826 101L1913 101L2000 101L2000 69L1913 67L1826 54L1739 83L1652 52L1565 70L1478 77L1391 67L1304 73L1217 61L1130 69L1043 66L957 65L870 87L783 73L696 62L609 70L522 72L435 72L348 65L261 67L174 86L87 75L0 68Z" fill="#001220">
  </path>
</svg>
