<svg id="visual" viewBox="0 0 960 300" width="960" height="300" xmlns="http://www.w3.org/2000/svg" xmlns:xlink="http://www.w3.org/1999/xlink" version="1.1"><rect x="0" y="0" width="960" height="300" fill="#fff"></rect><path d="M0 111L22.8 112.5C45.7 114 91.3 117 137 113.3C182.7 109.7 228.3 99.3 274 93.5C319.7 87.7 365.3 86.3 411.2 92.2C457 98 503 111 548.8 111.5C594.7 112 640.3 100 686 98.3C731.7 96.7 777.3 105.3 823 108C868.7 110.7 914.3 107.3 937.2 105.7L960 104L960 0L937.2 0C914.3 0 868.7 0 823 0C777.3 0 731.7 0 686 0C640.3 0 594.7 0 548.8 0C503 0 457 0 411.2 0C365.3 0 319.7 0 274 0C228.3 0 182.7 0 137 0C91.3 0 45.7 0 22.8 0L0 0Z" fill="#c62368"></path><path d="M0 64L22.8 66C45.7 68 91.3 72 137 73.5C182.7 75 228.3 74 274 77.2C319.7 80.3 365.3 87.7 411.2 86.3C457 85 503 75 548.8 72.8C594.7 70.7 640.3 76.3 686 82.3C731.7 88.3 777.3 94.7 823 93.5C868.7 92.3 914.3 83.7 937.2 79.3L960 75L960 0L937.2 0C914.3 0 868.7 0 823 0C777.3 0 731.7 0 686 0C640.3 0 594.7 0 548.8 0C503 0 457 0 411.2 0C365.3 0 319.7 0 274 0C228.3 0 182.7 0 137 0C91.3 0 45.7 0 22.8 0L0 0Z" fill="#da395a"></path><path d="M0 63L22.8 59.7C45.7 56.3 91.3 49.7 137 49.3C182.7 49 228.3 55 274 59C319.7 63 365.3 65 411.2 65.2C457 65.3 503 63.7 548.8 63.8C594.7 64 640.3 66 686 64.5C731.7 63 777.3 58 823 58.2C868.7 58.3 914.3 63.7 937.2 66.3L960 69L960 0L937.2 0C914.3 0 868.7 0 823 0C777.3 0 731.7 0 686 0C640.3 0 594.7 0 548.8 0C503 0 457 0 411.2 0C365.3 0 319.7 0 274 0C228.3 0 182.7 0 137 0C91.3 0 45.7 0 22.8 0L0 0Z" fill="#e8524c"></path><path d="M0 50L22.8 48C45.7 46 91.3 42 137 43C182.7 44 228.3 50 274 51.5C319.7 53 365.3 50 411.2 46.8C457 43.7 503 40.3 548.8 37.7C594.7 35 640.3 33 686 36C731.7 39 777.3 47 823 50.2C868.7 53.3 914.3 51.7 937.2 50.8L960 50L960 0L937.2 0C914.3 0 868.7 0 823 0C777.3 0 731.7 0 686 0C640.3 0 594.7 0 548.8 0C503 0 457 0 411.2 0C365.3 0 319.7 0 274 0C228.3 0 182.7 0 137 0C91.3 0 45.7 0 22.8 0L0 0Z" fill="#f06d3d"></path><path d="M0 36L22.8 35.5C45.7 35 91.3 34 137 30.2C182.7 26.3 228.3 19.7 274 19C319.7 18.3 365.3 23.7 411.2 25.8C457 28 503 27 548.8 26.7C594.7 26.3 640.3 26.7 686 24.5C731.7 22.3 777.3 17.7 823 15.5C868.7 13.3 914.3 13.7 937.2 13.8L960 14L960 0L937.2 0C914.3 0 868.7 0 823 0C777.3 0 731.7 0 686 0C640.3 0 594.7 0 548.8 0C503 0 457 0 411.2 0C365.3 0 319.7 0 274 0C228.3 0 182.7 0 137 0C91.3 0 45.7 0 22.8 0L0 0Z" fill="#f18930"></path></svg>