<svg id="visual" viewBox="0 0 2000 300" width="2000" height="300" xmlns="http://www.w3.org/2000/svg" xmlns:xlink="http://www.w3.org/1999/xlink" version="1.1"><path d="M0 76L182 115L364 91L545 154L727 115L909 94L1091 142L1273 163L1455 82L1636 139L1818 64L2000 130L2000 0L1818 0L1636 0L1455 0L1273 0L1091 0L909 0L727 0L545 0L364 0L182 0L0 0Z" fill="#001220"></path><path d="M0 154L182 205L364 151L545 244L727 154L909 145L1091 181L1273 211L1455 154L1636 220L1818 163L2000 208L2000 128L1818 62L1636 137L1455 80L1273 161L1091 140L909 92L727 113L545 152L364 89L182 113L0 74Z" fill="#fecc02"></path><path d="M0 301L182 301L364 301L545 301L727 301L909 301L1091 301L1273 301L1455 301L1636 301L1818 301L2000 301L2000 206L1818 161L1636 218L1455 152L1273 209L1091 179L909 143L727 152L545 242L364 149L182 203L0 152Z" fill="#001220"></path></svg>