<svg id="visual" viewBox="0 0 2000 300" width="2000" height="300" xmlns="http://www.w3.org/2000/svg" xmlns:xlink="http://www.w3.org/1999/xlink" version="1.1"><rect x="0" y="0" width="2000" height="300" fill="#fff"></rect><path d="M0 181L47.7 176.3C95.3 171.7 190.7 162.3 285.8 170.3C381 178.3 476 203.7 571.2 214.3C666.3 225 761.7 221 857 214.5C952.3 208 1047.7 199 1143 197.8C1238.3 196.7 1333.7 203.3 1428.8 200.7C1524 198 1619 186 1714.2 185.5C1809.3 185 1904.7 196 1952.3 201.5L2000 207L2000 0L1952.3 0C1904.7 0 1809.3 0 1714.2 0C1619 0 1524 0 1428.8 0C1333.7 0 1238.3 0 1143 0C1047.7 0 952.3 0 857 0C761.7 0 666.3 0 571.2 0C476 0 381 0 285.8 0C190.7 0 95.3 0 47.7 0L0 0Z" fill="#c62368"></path><path d="M0 190L47.7 181.5C95.3 173 190.7 156 285.8 154.8C381 153.7 476 168.3 571.2 166.8C666.3 165.3 761.7 147.7 857 148.3C952.3 149 1047.7 168 1143 180.2C1238.3 192.3 1333.7 197.7 1428.8 198.2C1524 198.7 1619 194.3 1714.2 189C1809.3 183.7 1904.7 177.3 1952.3 174.2L2000 171L2000 0L1952.3 0C1904.7 0 1809.3 0 1714.2 0C1619 0 1524 0 1428.8 0C1333.7 0 1238.3 0 1143 0C1047.7 0 952.3 0 857 0C761.7 0 666.3 0 571.2 0C476 0 381 0 285.8 0C190.7 0 95.3 0 47.7 0L0 0Z" fill="#da395a"></path><path d="M0 152L47.7 144C95.3 136 190.7 120 285.8 114.5C381 109 476 114 571.2 122.7C666.3 131.3 761.7 143.7 857 144.3C952.3 145 1047.7 134 1143 131.7C1238.3 129.3 1333.7 135.7 1428.8 133.8C1524 132 1619 122 1714.2 121.5C1809.3 121 1904.7 130 1952.3 134.5L2000 139L2000 0L1952.3 0C1904.7 0 1809.3 0 1714.2 0C1619 0 1524 0 1428.8 0C1333.7 0 1238.3 0 1143 0C1047.7 0 952.3 0 857 0C761.7 0 666.3 0 571.2 0C476 0 381 0 285.8 0C190.7 0 95.3 0 47.7 0L0 0Z" fill="#e8524c"></path><path d="M0 98L47.7 100.2C95.3 102.3 190.7 106.7 285.8 108.3C381 110 476 109 571.2 102.3C666.3 95.7 761.7 83.3 857 80.7C952.3 78 1047.7 85 1143 87.7C1238.3 90.3 1333.7 88.7 1428.8 82.8C1524 77 1619 67 1714.2 65C1809.3 63 1904.7 69 1952.3 72L2000 75L2000 0L1952.3 0C1904.7 0 1809.3 0 1714.2 0C1619 0 1524 0 1428.8 0C1333.7 0 1238.3 0 1143 0C1047.7 0 952.3 0 857 0C761.7 0 666.3 0 571.2 0C476 0 381 0 285.8 0C190.7 0 95.3 0 47.7 0L0 0Z" fill="#f06d3d"></path><path d="M0 51L47.7 54C95.3 57 190.7 63 285.8 61C381 59 476 49 571.2 46.3C666.3 43.7 761.7 48.3 857 50.2C952.3 52 1047.7 51 1143 52.2C1238.3 53.3 1333.7 56.7 1428.8 57.8C1524 59 1619 58 1714.2 57.2C1809.3 56.3 1904.7 55.7 1952.3 55.3L2000 55L2000 0L1952.3 0C1904.7 0 1809.3 0 1714.2 0C1619 0 1524 0 1428.8 0C1333.7 0 1238.3 0 1143 0C1047.7 0 952.3 0 857 0C761.7 0 666.3 0 571.2 0C476 0 381 0 285.8 0C190.7 0 95.3 0 47.7 0L0 0Z" fill="#f18930"></path></svg>