<svg xmlns="http://www.w3.org/2000/svg" version="1.1" xmlns:xlink="http://www.w3.org/1999/xlink" xmlns:svgjs="http://svgjs.dev/svgjs" width="2000" height="1607" viewBox="0 0 2000 1607"><g transform="matrix(1,0,0,1,0,0)"><svg viewBox="0 0 448 360" data-background-color="#ffffff" preserveAspectRatio="xMidYMid meet" height="1607" width="2000" xmlns="http://www.w3.org/2000/svg" xmlns:xlink="http://www.w3.org/1999/xlink"><g id="tight-bounds" transform="matrix(1,0,0,1,0,0)"><svg viewBox="0 0 448 360" height="360" width="448"><g><svg></svg></g><g><svg viewBox="0 0 448 360" height="360" width="448"><g><path d="M193.855 44.683c1.378 0 2.494 1.116 2.495 2.494 0 1.378-1.116 2.494-2.495 2.495h-23.846l-17.167 17.167c-0.973 0.973-2.551 0.973-3.53 0-0.973-0.973-0.973-2.551 0-3.529l13.644-13.645h-40.378c-11.518 0-19.151 2.688-23.815 8.113-4.739 5.519-6.66 14.056-6.66 25.63 0 0.069 0 0.137-0.006 0.206l0.212 36.692 14.692-14.692c0.973-0.973 2.551-0.973 3.53 0 0.973 0.973 0.973 2.551 0 3.53l-18.178 18.178c0.206 35.832 0.193 71.358-0.013 107.19 25.486 25.2 50.617 50.312 75.811 75.791h25.38c1.378 0 2.494 1.116 2.495 2.495 0 1.378-1.116 2.494-2.495 2.494h-20.448l25.942 26.241 0.006-0.006c8.188 8.188 15.577 12.859 22.824 13.413 7.146 0.543 14.442-2.956 22.586-11.093l28.555-28.555h-20.722c-1.378 0-2.494-1.116-2.495-2.494 0-1.378 1.116-2.494 2.495-2.495h25.711l16.625-16.625c0.973-0.973 2.551-0.973 3.529 0 0.973 0.973 0.973 2.551 0 3.53l-13.101 13.102h40.377c11.518 0 19.151-2.688 23.815-8.113 4.739-5.519 6.66-14.056 6.66-25.63h0.013l-0.212-36.898-16.014 16.014c-0.973 0.973-2.551 0.973-3.53 0-0.973-0.973-0.973-2.551 0-3.53l19.5-19.5c-0.206-35.832-0.193-71.358 0.013-107.19-25.486-25.2-50.617-50.312-75.811-75.791h-26.147c-1.378 0-2.494-1.116-2.495-2.495 0-1.378 1.116-2.494 2.495-2.494h21.215l-25.824-26.123c-0.044-0.037-0.081-0.075-0.124-0.112-8.188-8.188-15.577-12.859-22.824-13.413-7.146-0.543-14.442 2.956-22.586 11.093l-28.555 28.555h18.858zM122.578 44.683h45.367l32.078-32.078c9.248-9.248 17.81-13.195 26.484-12.534 8.568 0.649 16.956 5.824 25.985 14.854 0.05 0.05 0.094 0.094 0.137 0.143l29.278 29.615h43.508c13.071 0 21.919 3.268 27.594 9.871 5.6 6.517 7.864 16.101 7.864 28.867 0 0.081-0.006 0.156-0.012 0.23l-0.225 39.742 28.43 28.112 0.006-0.006c9.03 9.03 14.206 17.411 14.854 25.985 0.661 8.674-3.293 17.236-12.534 26.484l-30.768 30.768 0.237 41.843h0.012c0 12.765-2.27 22.35-7.864 28.867-5.675 6.604-14.524 9.872-27.594 9.871h-45.366l-32.078 32.078c-9.248 9.248-17.81 13.195-26.484 12.534-8.568-0.649-16.956-5.824-25.985-14.854l0.006-0.006-29.421-29.758h-43.509c-13.071 0-21.919-3.268-27.594-9.872-5.6-6.517-7.864-16.101-7.863-28.866h0.012l0.231-39.972-28.293-27.969c-0.05-0.044-0.1-0.087-0.143-0.137-9.03-9.03-14.206-17.411-14.854-25.985-0.661-8.674 3.293-17.236 12.534-26.484l30.768-30.768-0.237-41.607c-0.006-0.075-0.012-0.156-0.012-0.23 0-12.765 2.27-22.35 7.864-28.867 5.675-6.604 14.524-9.872 27.594-9.871zM87.682 179.997l-0.274-47.724-27.276 27.276c-8.138 8.138-11.636 15.44-11.094 22.587 0.549 7.246 5.226 14.642 13.413 22.823 0.037 0.037 0.081 0.081 0.113 0.125l24.837 24.551 0.281-49.644zM92.303 241.483l-0.2 35.09h0.013c0 11.58 1.921 20.117 6.66 25.63 4.664 5.432 12.297 8.113 23.815 8.113h38.576l-33.55-33.936-35.308-34.903zM325.415 49.672h-38.575l33.549 33.936 35.308 34.902 0.2-34.884c-0.006-0.069-0.006-0.137-0.007-0.205 0-11.58-1.921-20.117-6.66-25.63-4.664-5.432-12.297-8.113-23.815-8.113zM360.599 130.352l-0.281 49.645 0.274 47.724 27.276-27.276c8.138-8.138 11.636-15.44 11.094-22.587-0.549-7.252-5.226-14.642-13.413-22.824l0.006-0.006-24.956-24.669z" fill="#ffffff" fill-rule="nonzero" stroke="none" stroke-width="1" stroke-linecap="butt" stroke-linejoin="miter" stroke-miterlimit="10" stroke-dasharray="" stroke-dashoffset="0" font-family="none" font-weight="none" font-size="none" text-anchor="none" style="mix-blend-mode: normal" data-fill-palette-color="tertiary"></path></g><g transform="matrix(1,0,0,1,112,152.17813765182186)"><svg viewBox="0 0 224 55.64372469635628" height="55.64372469635628" width="224"><g><svg viewBox="0 0 224 55.64372469635628" height="55.64372469635628" width="224"><g><svg viewBox="0 0 224 55.64372469635628" height="55.64372469635628" width="224"><g><svg viewBox="0 0 224 55.64372469635628" height="55.64372469635628" width="224"><g id="textblocktransform"><svg viewBox="0 0 224 55.64372469635628" height="55.64372469635628" width="224" id="textblock"><g><svg viewBox="0 0 224 55.64372469635628" height="55.64372469635628" width="224"><g transform="matrix(1,0,0,1,0,0)"><svg width="224" viewBox="3.5 -31.7 172.89 42.95" height="55.64372469635628" data-palette-color="#d69723"><path d="M15.95-11.3Q14-11.3 12.68-11.43 11.35-11.55 9.2-11.85L9.2-11.85 9.15-6.6Q9.1-5.25 9.1-2.75L9.1-2.75Q9.1-1.45 8.38-0.73 7.65 0 6.75 0L6.75 0Q5.1 0 4.3-0.43 3.5-0.85 3.5-1.95L3.5-1.95Q3.5-3.4 3.75-6.05L3.75-6.05Q4.3-11.75 4.3-17.75L4.3-17.75Q4.3-23.35 3.95-28.3L3.95-28.3Q4-29 4.67-29.9 5.35-30.8 6.4-30.9L6.4-30.9Q7.55-30.9 10.05-31.3L10.05-31.3Q12.65-31.7 14-31.7L14-31.7Q18.1-31.7 20.38-30.9 22.65-30.1 24.95-28.25L24.95-28.25Q27.45-24.35 27.45-22.75L27.45-22.75Q27.45-19.4 26.1-16.8 24.75-14.2 22.15-12.75 19.55-11.3 15.95-11.3L15.95-11.3ZM14.8-27.45Q13.2-27.45 12.03-27.28 10.85-27.1 9.2-26.7L9.2-26.7Q9.4-22.1 9.4-20L9.4-20Q9.4-17.85 9.25-16.4L9.25-16.4Q11.4-15.95 12.65-15.83 13.9-15.7 15.45-15.7L15.45-15.7Q19.15-15.7 20.68-17.63 22.2-19.55 22.2-22.1L22.2-22.1Q22.2-22.85 21.75-23.95 21.3-25.05 20.95-25.4L20.95-25.4Q19.6-26.6 18.32-27.03 17.05-27.45 14.8-27.45L14.8-27.45ZM38.6-2Q38.6-1.15 37.95-0.5 37.3 0.15 36.35 0.15L36.35 0.15Q34.85 0.15 34.15-0.43 33.45-1 33.45-2.55L33.45-2.55Q33.45-4.4 33.35-7.4L33.35-7.4Q33.25-9.9 33.25-11.6L33.25-11.6Q33.25-12.4 33.35-13.7L33.35-13.7Q33.45-14.9 33.45-15.5L33.45-15.5Q33.3-16.45 32.7-17.07 32.1-17.7 31.15-17.7L31.15-17.7Q30.7-17.7 30.4-18.13 30.1-18.55 30.1-19L30.1-19Q30.1-20.15 31.02-20.75 31.95-21.35 33.25-21.35L33.25-21.35Q35.95-21.35 37-18.15L37-18.15Q38.3-19.65 39.97-20.58 41.65-21.5 43.2-21.5L43.2-21.5Q45.05-21.5 46.57-20.5 48.1-19.5 48.1-17.8L48.1-17.8Q48.1-16.85 47.27-15.85 46.45-14.85 45.6-14.85L45.6-14.85Q45.15-14.85 44.82-15.08 44.5-15.3 44.05-15.75L44.05-15.75Q43.55-16.25 43.2-16.48 42.85-16.7 42.4-16.7L42.4-16.7Q41.6-16.7 40.9-16.45 40.2-16.2 39.95-15.85L39.95-15.85Q39.15-14.6 38.77-13.6 38.4-12.6 38.4-11.45L38.4-11.45Q38.4-10.6 38.35-10.1L38.35-10.1 38.3-7.25Q38.3-6.6 38.35-5.8 38.4-5 38.45-4.6L38.45-4.6Q38.6-3.25 38.6-2L38.6-2ZM73.8-2.4Q73.8-1.3 72.62-0.55 71.45 0.2 70.45 0.2L70.45 0.2Q68.55 0.2 67.42-0.28 66.3-0.75 65.34-2.05L65.34-2.05Q64.05-0.9 61.8-0.33 59.55 0.25 57.65 0.25L57.65 0.25Q54.55 0.25 52.55-1.43 50.55-3.1 50.55-6.35L50.55-6.35Q50.55-7.75 51.3-8.93 52.05-10.1 53.35-11L53.35-11Q54.8-11.95 56.65-12.48 58.5-13 60.5-13L60.5-13Q61.55-13 63-12.6 64.45-12.2 65.25-11.75L65.25-11.75 65.25-12.55Q65.25-15.25 63.95-16.28 62.65-17.3 59.75-17.3L59.75-17.3Q58.9-17.3 58.07-16.95 57.25-16.6 56.2-16L56.2-16Q54.8-15.25 53.55-15.25L53.55-15.25Q53.1-15.25 52.7-15.88 52.3-16.5 52.3-17L52.3-17Q52.3-18.45 53.67-19.5 55.05-20.55 56.95-21.08 58.85-21.6 60.35-21.6L60.35-21.6Q61.85-21.6 63.8-21.03 65.75-20.45 67-19.45L67-19.45Q68.5-18.15 69.32-16.43 70.15-14.7 70.15-12.65L70.15-12.65Q70.15-12 70.05-10.7L70.05-10.7Q69.95-9.3 69.95-8.3L69.95-8.3Q69.95-7.85 69.84-6.95L69.84-6.95Q69.75-5.85 69.75-5.2L69.75-5.2Q69.75-4.6 70.2-4.17 70.65-3.75 71.25-3.75L71.25-3.75 72.65-3.8Q73.2-3.8 73.5-3.4 73.8-3 73.8-2.4L73.8-2.4ZM57.7-3.7Q59.85-3.7 61.3-4.15 62.75-4.6 64.8-5.8L64.8-5.8Q65-6.65 65.05-8.05L65.05-8.05Q62.3-9.35 60.5-9.35L60.5-9.35Q58.45-9.35 56.85-8.6 55.25-7.85 55.25-5.95L55.25-5.95Q55.25-5 56.05-4.35 56.85-3.7 57.7-3.7L57.7-3.7ZM91.09-11.25Q91.49-11 92.67-10.33 93.84-9.65 94.24-8.75 94.64-7.85 94.64-6.25L94.64-6.25Q94.64-4.45 93.59-3.08 92.54-1.7 90.89-0.95L90.89-0.95Q89.69-0.4 87.97-0.1 86.24 0.2 85.24 0.2L85.24 0.2Q84.24 0.2 82.67-0.1 81.09-0.4 80.49-0.65L80.49-0.65Q78.94-1.55 77.82-2.85 76.69-4.15 76.69-5.5L76.69-5.5Q76.69-6.5 77.34-7.08 77.99-7.65 79.04-7.65L79.04-7.65Q79.54-7.65 80.09-7.28 80.64-6.9 80.84-6.5L80.84-6.5Q81.39-5.2 82.69-4.55 83.99-3.9 85.34-3.9L85.34-3.9Q87.09-3.9 88.59-4.48 90.09-5.05 90.09-6.05L90.09-6.05Q90.09-6.5 89.87-6.78 89.64-7.05 89.24-7.35L89.24-7.35Q88.54-7.85 87.14-8.18 85.74-8.5 85.34-8.6L85.34-8.6Q83.29-9.05 81.34-9.95L81.34-9.95Q79.39-10.9 78.24-12.2 77.09-13.5 77.09-15.55L77.09-15.55Q77.09-16.9 78.09-18.38 79.09-19.85 80.34-20.45L80.34-20.45Q81.24-20.8 83.37-21.2 85.49-21.6 86.24-21.6L86.24-21.6Q87.39-21.6 88.74-21.38 90.09-21.15 90.79-20.65L90.79-20.65Q92.14-19.85 92.99-18.98 93.84-18.1 93.84-17L93.84-17Q93.84-16.45 93.59-15.83 93.34-15.2 92.99-15.05L92.99-15.05Q92.24-14.7 91.24-14.7L91.24-14.7Q90.79-14.7 90.52-14.95 90.24-15.2 89.79-15.75L89.79-15.75Q89.24-16.6 88.74-16.75L88.74-16.75Q88.14-16.9 86.99-17.13 85.84-17.35 85.44-17.35L85.44-17.35Q84.29-17.35 83.07-16.7 81.84-16.05 81.84-15.2L81.84-15.2Q81.84-14.75 82.22-14.5 82.59-14.25 83.02-14.05 83.44-13.85 83.59-13.8L83.59-13.8Q84.64-13.3 85.92-12.95 87.19-12.6 87.49-12.5L87.49-12.5Q90.19-11.85 91.09-11.25L91.09-11.25ZM122.09-2.4Q122.09-1.3 120.92-0.55 119.74 0.2 118.74 0.2L118.74 0.2Q116.84 0.2 115.72-0.28 114.59-0.75 113.64-2.05L113.64-2.05Q112.34-0.9 110.09-0.33 107.84 0.25 105.94 0.25L105.94 0.25Q102.84 0.25 100.84-1.43 98.84-3.1 98.84-6.35L98.84-6.35Q98.84-7.75 99.59-8.93 100.34-10.1 101.64-11L101.64-11Q103.09-11.95 104.94-12.48 106.79-13 108.79-13L108.79-13Q109.84-13 111.29-12.6 112.74-12.2 113.54-11.75L113.54-11.75 113.54-12.55Q113.54-15.25 112.24-16.28 110.94-17.3 108.04-17.3L108.04-17.3Q107.19-17.3 106.37-16.95 105.54-16.6 104.49-16L104.49-16Q103.09-15.25 101.84-15.25L101.84-15.25Q101.39-15.25 100.99-15.88 100.59-16.5 100.59-17L100.59-17Q100.59-18.45 101.97-19.5 103.34-20.55 105.24-21.08 107.14-21.6 108.64-21.6L108.64-21.6Q110.14-21.6 112.09-21.03 114.04-20.45 115.29-19.45L115.29-19.45Q116.79-18.15 117.62-16.43 118.44-14.7 118.44-12.65L118.44-12.65Q118.44-12 118.34-10.7L118.34-10.7Q118.24-9.3 118.24-8.3L118.24-8.3Q118.24-7.85 118.14-6.95L118.14-6.95Q118.04-5.85 118.04-5.2L118.04-5.2Q118.04-4.6 118.49-4.17 118.94-3.75 119.54-3.75L119.54-3.75 120.94-3.8Q121.49-3.8 121.79-3.4 122.09-3 122.09-2.4L122.09-2.4ZM105.99-3.7Q108.14-3.7 109.59-4.15 111.04-4.6 113.09-5.8L113.09-5.8Q113.29-6.65 113.34-8.05L113.34-8.05Q110.59-9.35 108.79-9.35L108.79-9.35Q106.74-9.35 105.14-8.6 103.54-7.85 103.54-5.95L103.54-5.95Q103.54-5 104.34-4.35 105.14-3.7 105.99-3.7L105.99-3.7ZM148.19-3.85Q148.44-3.75 148.99-3.6 149.54-3.45 149.79-3.3 150.04-3.15 150.04-2.85L150.04-2.85Q150.09-1.65 149.16-0.88 148.24-0.1 146.99-0.1L146.99-0.1Q145.04-0.1 143.94-1.15 142.84-2.2 142.34-4.35L142.34-4.35Q142.14-5.2 142.14-6.7L142.14-6.7Q142.14-7.55 142.24-9.45L142.24-9.45Q142.34-11.45 142.34-12.65L142.34-12.65Q142.34-14.4 141.36-15.73 140.39-17.05 138.64-17.05L138.64-17.05Q137.59-17.05 136.44-16.43 135.29-15.8 134.84-14.9L134.84-14.9Q134.09-13.45 133.79-11.75L133.79-11.75Q133.24-8.75 133.24-5.5L133.24-5.5Q133.24-3.95 133.29-3.1L133.29-3.1Q133.29-2.9 133.31-2.33 133.34-1.75 133.21-1.28 133.09-0.8 132.79-0.4L132.79-0.4Q132.54-0.15 132.01 0.03 131.49 0.2 131.04 0.2L131.04 0.2Q130.34 0.2 129.29-0.4 128.24-1 128.09-1.75L128.09-1.75 128.04-2.6Q128.04-3.05 128.14-3.65L128.14-3.65Q128.74-7.15 128.74-9.75L128.74-9.75Q128.74-10.9 128.69-11.55L128.69-11.55 128.64-13.9Q128.64-15.1 128.04-16.23 127.44-17.35 126.64-17.35L126.64-17.35Q126.39-17.35 125.94-17.18 125.49-17 125.19-17L125.19-17Q124.69-17 124.11-17.5 123.54-18 123.54-18.55L123.54-18.55Q123.54-19.6 124.24-20.25L124.24-20.25Q124.99-20.85 125.71-21.2 126.44-21.55 127.39-21.55L127.39-21.55Q128.19-21.55 128.69-21.4 129.19-21.25 130.04-20.75L130.04-20.75Q130.49-20.5 131.09-19.65 131.69-18.8 132.09-17.25L132.09-17.25Q133.39-19.65 135.31-20.63 137.24-21.6 140.24-21.6L140.24-21.6Q141.39-21.6 142.71-20.85 144.04-20.1 144.99-19.1L144.99-19.1Q145.89-18 146.49-16.38 147.09-14.75 147.09-13.45L147.09-13.45Q147.09-12.7 146.99-11L146.99-11Q146.84-9.65 146.84-8.15L146.84-8.15Q146.84-4.65 148.19-3.85L148.19-3.85ZM171.69-0.1Q173.04 0.85 173.51 2 173.99 3.15 173.99 5.2L173.99 5.2Q173.99 6.2 173.41 7.2 172.84 8.2 172.24 8.65L172.24 8.65Q167.49 11.25 162.74 11.25L162.74 11.25Q160.39 11.25 158.69 10.65 156.99 10.05 155.49 9.05L155.49 9.05Q154.49 8.3 153.86 6.98 153.24 5.65 153.24 4.35L153.24 4.35Q153.24 2.55 154.36 1.2 155.49-0.15 157.39-0.75L157.39-0.75Q157.04-1.5 157.04-2.5L157.04-2.5Q157.04-3.45 158.44-5.35L158.44-5.35Q156.04-6.15 154.66-8.2 153.29-10.25 153.29-13L153.29-13Q153.29-14.7 154.09-16.03 154.89-17.35 156.49-19.1L156.49-19.1Q157.59-20.3 159.29-20.85 160.99-21.4 163.54-21.4L163.54-21.4Q165.34-21.4 167.99-20.6L167.99-20.6Q171.14-22.8 173.54-22.8L173.54-22.8Q174.14-22.8 174.91-22.5 175.69-22.2 176.09-21.9L176.09-21.9Q176.39-21.35 176.39-20.05L176.39-20.05Q176.39-19.55 175.96-19.07 175.54-18.6 174.89-18.6L174.89-18.6 173.69-18.65Q172.79-18.75 172.29-18.75L172.29-18.75Q171.74-18.75 170.64-18.65L170.64-18.65Q171.69-17.4 172.26-16 172.84-14.6 172.84-12.35L172.84-12.35Q172.84-10.65 171.59-8.8 170.34-6.95 168.64-5.9L168.64-5.9Q166.04-4.5 162.59-4.45L162.59-4.45Q162.19-4.05 161.91-3.73 161.64-3.4 161.64-3.2L161.64-3.2Q161.64-2.65 162.59-2.35 163.54-2.05 165.49-1.9L165.49-1.9Q166.99-1.8 168.81-1.28 170.64-0.75 171.69-0.1L171.69-0.1ZM162.89-8.55Q165.19-8.55 166.59-9.8 167.99-11.05 167.99-13.35L167.99-13.35Q167.99-15.1 166.74-16.2 165.49-17.3 163.54-17.3L163.54-17.3Q162.29-17.3 160.86-16.88 159.44-16.45 158.84-15.55L158.84-15.55Q158.54-15.15 158.24-14.03 157.94-12.9 157.94-12.3L157.94-12.3Q157.94-11.45 158.66-10.58 159.39-9.7 160.56-9.13 161.74-8.55 162.89-8.55L162.89-8.55ZM166.04 2.3Q163.29 2.05 162.16 1.83 161.04 1.6 160.34 1.3L160.34 1.3Q157.79 2.65 157.79 4.25L157.79 4.25Q157.79 5.75 159.34 6.53 160.89 7.3 162.89 7.3L162.89 7.3Q163.79 7.3 165.34 7.1 166.89 6.9 167.94 6.4L167.94 6.4Q168.64 6.05 168.99 5.73 169.34 5.4 169.34 4.55L169.34 4.55Q169.34 3.5 168.24 2.95 167.14 2.4 166.04 2.3L166.04 2.3Z" opacity="1" transform="matrix(1,0,0,1,0,0)" fill="#ffffff" class="wordmark-text-0" data-fill-palette-color="primary" id="text-0"></path></svg></g></svg></g></svg></g></svg></g><g></g></svg></g></svg></g></svg></g></svg></g><defs></defs></svg><rect width="448" height="360" fill="none" stroke="none" visibility="hidden"></rect></g></svg></g></svg>