<svg id="visual" viewBox="0 0 2000 300" width="2000" height="300" xmlns="http://www.w3.org/2000/svg" xmlns:xlink="http://www.w3.org/1999/xlink" version="1.1"><path d="M0 100L30.3 105C60.7 110 121.3 120 182 123C242.7 126 303.3 122 363.8 109.5C424.3 97 484.7 76 545.2 81C605.7 86 666.3 117 727 118.5C787.7 120 848.3 92 909 85.5C969.7 79 1030.3 94 1091 104.5C1151.7 115 1212.3 121 1273 116C1333.7 111 1394.3 95 1454.8 96C1515.3 97 1575.7 115 1636.2 113C1696.7 111 1757.3 89 1818 79C1878.7 69 1939.3 71 1969.7 72L2000 73L2000 0L1969.7 0C1939.3 0 1878.7 0 1818 0C1757.3 0 1696.7 0 1636.2 0C1575.7 0 1515.3 0 1454.8 0C1394.3 0 1333.7 0 1273 0C1212.3 0 1151.7 0 1091 0C1030.3 0 969.7 0 909 0C848.3 0 787.7 0 727 0C666.3 0 605.7 0 545.2 0C484.7 0 424.3 0 363.8 0C303.3 0 242.7 0 182 0C121.3 0 60.7 0 30.3 0L0 0Z" fill="#ffffff"></path><path d="M0 214L30.3 220.5C60.7 227 121.3 240 182 237C242.7 234 303.3 215 363.8 208.5C424.3 202 484.7 208 545.2 219C605.7 230 666.3 246 727 245C787.7 244 848.3 226 909 220C969.7 214 1030.3 220 1091 228C1151.7 236 1212.3 246 1273 248.5C1333.7 251 1394.3 246 1454.8 239C1515.3 232 1575.7 223 1636.2 219.5C1696.7 216 1757.3 218 1818 224C1878.7 230 1939.3 240 1969.7 245L2000 250L2000 71L1969.7 70C1939.3 69 1878.7 67 1818 77C1757.3 87 1696.7 109 1636.2 111C1575.7 113 1515.3 95 1454.8 94C1394.3 93 1333.7 109 1273 114C1212.3 119 1151.7 113 1091 102.5C1030.3 92 969.7 77 909 83.5C848.3 90 787.7 118 727 116.5C666.3 115 605.7 84 545.2 79C484.7 74 424.3 95 363.8 107.5C303.3 120 242.7 124 182 121C121.3 118 60.7 108 30.3 103L0 98Z" fill="#ffc397"></path><path d="M0 301L30.3 301C60.7 301 121.3 301 182 301C242.7 301 303.3 301 363.8 301C424.3 301 484.7 301 545.2 301C605.7 301 666.3 301 727 301C787.7 301 848.3 301 909 301C969.7 301 1030.3 301 1091 301C1151.7 301 1212.3 301 1273 301C1333.7 301 1394.3 301 1454.8 301C1515.3 301 1575.7 301 1636.2 301C1696.7 301 1757.3 301 1818 301C1878.7 301 1939.3 301 1969.7 301L2000 301L2000 248L1969.7 243C1939.3 238 1878.7 228 1818 222C1757.3 216 1696.7 214 1636.2 217.5C1575.7 221 1515.3 230 1454.8 237C1394.3 244 1333.7 249 1273 246.5C1212.3 244 1151.7 234 1091 226C1030.3 218 969.7 212 909 218C848.3 224 787.7 242 727 243C666.3 244 605.7 228 545.2 217C484.7 206 424.3 200 363.8 206.5C303.3 213 242.7 232 182 235C121.3 238 60.7 225 30.3 218.5L0 212Z" fill="#f18930"></path></svg>