<svg id="visual" viewBox="0 0 2000 300" width="2000" height="300" xmlns="http://www.w3.org/2000/svg" xmlns:xlink="http://www.w3.org/1999/xlink" version="1.1"><rect x="0" y="0" width="2000" height="300" fill="#f18930"></rect><path d="M0 220L47.7 205C95.3 190 190.7 160 285.8 144.8C381 129.7 476 129.3 571.2 139.2C666.3 149 761.7 169 857 161.7C952.3 154.3 1047.7 119.7 1143 118.2C1238.3 116.7 1333.7 148.3 1428.8 165.3C1524 182.3 1619 184.7 1714.2 187.7C1809.3 190.7 1904.7 194.3 1952.3 196.2L2000 198L2000 301L1952.3 301C1904.7 301 1809.3 301 1714.2 301C1619 301 1524 301 1428.8 301C1333.7 301 1238.3 301 1143 301C1047.7 301 952.3 301 857 301C761.7 301 666.3 301 571.2 301C476 301 381 301 285.8 301C190.7 301 95.3 301 47.7 301L0 301Z" fill="#fff" stroke-linecap="round" stroke-linejoin="miter"></path></svg>