<svg id="visual" viewBox="0 0 2000 300" width="2000" height="300" xmlns="http://www.w3.org/2000/svg" xmlns:xlink="http://www.w3.org/1999/xlink" version="1.1"><rect x="0" y="0" width="2000" height="300" fill="#ffc397"></rect><path d="M0 145L47.7 146.7C95.3 148.3 190.7 151.7 285.8 163.2C381 174.7 476 194.3 571.2 204.3C666.3 214.3 761.7 214.7 857 198.2C952.3 181.7 1047.7 148.3 1143 143C1238.3 137.7 1333.7 160.3 1428.8 171.5C1524 182.7 1619 182.3 1714.2 166.3C1809.3 150.3 1904.7 118.7 1952.3 102.8L2000 87L2000 301L1952.3 301C1904.7 301 1809.3 301 1714.2 301C1619 301 1524 301 1428.8 301C1333.7 301 1238.3 301 1143 301C1047.7 301 952.3 301 857 301C761.7 301 666.3 301 571.2 301C476 301 381 301 285.8 301C190.7 301 95.3 301 47.7 301L0 301Z" fill="#f18930" stroke-linecap="round" stroke-linejoin="miter"></path></svg>