<svg id="visual" viewBox="0 0 2000 100" width="2000" height="100" xmlns="http://www.w3.org/2000/svg" xmlns:xlink="http://www.w3.org/1999/xlink" version="1.1">
  <path d="M0 39L87 45L174 49L261 35L348 36L435 56L522 38L609 46L696 40L783 48L870 46L957 43L1043 48L1130 49L1217 41L1304 42L1391 45L1478 49L1565 45L1652 25L1739 48L1826 39L1913 51L2000 45L2000 22L1913 35L1826 18L1739 37L1652 16L1565 27L1478 40L1391 24L1304 23L1217 27L1130 31L1043 31L957 29L870 38L783 38L696 25L609 33L522 25L435 43L348 19L261 17L174 32L87 26L0 21Z" fill="#9f7a00">
  </path>
  <path d="M0 54L87 56L174 62L261 51L348 47L435 63L522 55L609 63L696 47L783 60L870 63L957 49L1043 55L1130 59L1217 50L1304 48L1391 55L1478 59L1565 59L1652 36L1739 60L1826 47L1913 58L2000 53L2000 43L1913 49L1826 37L1739 46L1652 23L1565 43L1478 47L1391 43L1304 40L1217 39L1130 47L1043 46L957 41L870 44L783 46L696 38L609 44L522 36L435 54L348 34L261 33L174 47L87 43L0 37Z" fill="#ffcd00">
  </path>
  <path d="M0 70L87 77L174 88L261 69L348 67L435 74L522 74L609 72L696 64L783 75L870 89L957 67L1043 68L1130 71L1217 63L1304 75L1391 69L1478 79L1565 72L1652 54L1739 85L1826 56L1913 69L2000 71L2000 51L1913 56L1826 45L1739 58L1652 34L1565 57L1478 57L1391 53L1304 46L1217 48L1130 57L1043 53L957 47L870 61L783 58L696 45L609 61L522 53L435 61L348 45L261 49L174 60L87 54L0 52Z" fill="#9f7a00"></path>
</svg>
