<svg id="visual" viewBox="0 0 2000 300" width="2000" height="300" xmlns="http://www.w3.org/2000/svg" xmlns:xlink="http://www.w3.org/1999/xlink" version="1.1"><path d="M0 43L200 46L400 34L600 31L800 37L1000 34L1200 34L1400 19L1600 19L1800 19L2000 43L2000 0L1800 0L1600 0L1400 0L1200 0L1000 0L800 0L600 0L400 0L200 0L0 0Z" fill="#ffffff"></path><path d="M0 103L200 121L400 139L600 121L800 121L1000 130L1200 88L1400 148L1600 124L1800 94L2000 139L2000 41L1800 17L1600 17L1400 17L1200 32L1000 32L800 35L600 29L400 32L200 44L0 41Z" fill="#ffe1ca"></path><path d="M0 133L200 184L400 178L600 154L800 196L1000 202L1200 160L1400 202L1600 160L1800 181L2000 211L2000 137L1800 92L1600 122L1400 146L1200 86L1000 128L800 119L600 119L400 137L200 119L0 101Z" fill="#ffc397"></path><path d="M0 250L200 247L400 259L600 250L800 280L1000 259L1200 280L1400 259L1600 280L1800 268L2000 262L2000 209L1800 179L1600 158L1400 200L1200 158L1000 200L800 194L600 152L400 176L200 182L0 131Z" fill="#faa665"></path><path d="M0 301L200 301L400 301L600 301L800 301L1000 301L1200 301L1400 301L1600 301L1800 301L2000 301L2000 260L1800 266L1600 278L1400 257L1200 278L1000 257L800 278L600 248L400 257L200 245L0 248Z" fill="#f18930"></path></svg>